<?xml version="1.0" standalone="no"?>
<!DOCTYPE svg PUBLIC "-//W3C//DTD SVG 20010904//EN"
 "http://www.w3.org/TR/2001/REC-SVG-20010904/DTD/svg10.dtd">
<svg version="1.0" xmlns="http://www.w3.org/2000/svg"
 width="512.000000pt" height="512.000000pt" viewBox="0 0 512.000000 512.000000"
 preserveAspectRatio="xMidYMid meet">

<g transform="translate(0.000000,512.000000) scale(0.100000,-0.100000)"
fill="#000000" stroke="none">
<path d="M2269 5097 c-27 -15 -52 -38 -66 -63 -22 -37 -23 -50 -23 -264 l0
-225 -133 -43 c-72 -23 -192 -72 -266 -108 l-133 -66 -157 155 c-86 86 -169
160 -184 166 -52 20 -110 13 -158 -18 -69 -47 -526 -511 -544 -554 -18 -43
-19 -94 -4 -134 6 -15 80 -98 166 -184 l155 -157 -66 -133 c-36 -74 -85 -193
-108 -266 l-43 -133 -225 0 c-214 0 -227 -1 -264 -23 -25 -14 -48 -39 -63 -66
-23 -44 -23 -46 -23 -421 0 -375 0 -377 23 -421 15 -27 38 -52 63 -66 37 -22
50 -23 264 -23 l225 0 43 -133 c23 -73 72 -192 108 -266 l66 -133 -155 -157
c-86 -86 -160 -169 -166 -184 -15 -40 -14 -91 4 -134 18 -43 475 -507 544
-554 51 -34 113 -39 164 -13 18 9 100 84 183 166 l152 150 131 -65 c72 -35
192 -84 266 -108 l135 -44 0 -225 c0 -214 1 -227 23 -264 14 -25 39 -48 66
-63 44 -23 46 -23 421 -23 375 0 377 0 421 23 27 15 52 38 66 63 22 37 23 50
23 265 l0 225 89 27 c50 15 92 27 94 27 2 0 29 -22 58 -50 30 -27 70 -54 89
-60 19 -5 128 -10 242 -10 l208 0 6 -27 c13 -56 68 -144 120 -193 210 -199
546 -136 675 126 32 65 34 74 34 179 0 103 -2 114 -31 176 -55 115 -138 190
-255 229 -91 31 -219 25 -303 -13 -114 -52 -206 -155 -236 -261 l-13 -46 -196
0 -196 0 -147 147 -148 148 0 282 0 283 129 0 129 0 13 -37 c67 -209 257 -329
474 -301 177 23 327 175 356 360 43 276 -215 529 -488 479 -141 -26 -248 -103
-307 -223 -19 -40 -37 -81 -40 -91 -5 -16 -19 -17 -157 -15 l-151 3 -139 255
c-76 140 -139 258 -139 262 0 4 16 24 35 45 31 33 82 124 99 175 5 17 39 18
525 18 l519 0 16 -46 c93 -273 427 -377 657 -204 226 170 226 510 0 680 -145
109 -347 113 -493 11 -70 -49 -132 -127 -159 -200 l-22 -61 -519 0 c-485 0
-519 1 -524 18 -17 51 -68 142 -99 175 -19 21 -35 41 -35 45 0 4 63 122 139
262 l139 255 151 3 c138 2 152 1 157 -15 3 -10 21 -50 40 -90 77 -161 265
-257 441 -224 186 34 320 169 354 354 31 172 -70 367 -233 446 -237 116 -515
-6 -597 -261 l-13 -38 -129 0 -129 0 0 282 0 283 147 147 148 148 196 0 196 0
13 -46 c30 -106 122 -208 236 -261 53 -25 70 -28 169 -28 103 0 114 2 177 32
94 44 160 109 206 202 36 73 37 78 37 186 0 105 -2 114 -34 179 -91 186 -292
281 -486 231 -32 -9 -80 -28 -107 -42 -87 -47 -180 -166 -202 -255 l-6 -28
-208 0 c-114 0 -223 -4 -242 -10 -19 -5 -53 -28 -75 -50 -63 -64 -64 -64 -165
-33 l-90 27 0 225 c0 215 -1 228 -23 265 -14 25 -39 48 -66 63 -44 23 -46 23
-421 23 -375 0 -377 0 -421 -23z m761 -398 l0 -251 28 -26 c18 -19 51 -33 105
-46 42 -11 77 -24 77 -29 0 -5 -18 -27 -40 -48 -68 -66 -80 -94 -80 -183 l0
-78 -27 5 c-16 4 -60 13 -98 21 -330 71 -693 20 -1006 -140 -366 -187 -629
-497 -759 -892 -54 -167 -73 -287 -73 -472 0 -185 19 -305 73 -472 130 -395
393 -705 759 -892 312 -159 677 -211 1005 -140 39 8 83 17 99 21 l27 6 0 -79
c0 -91 11 -116 86 -187 34 -33 44 -48 33 -51 -8 -3 -48 -14 -89 -26 -123 -33
-120 -23 -120 -321 l0 -249 -340 0 -340 0 0 251 0 251 -27 27 c-20 19 -51 33
-103 45 -154 37 -319 107 -525 221 -35 20 -58 26 -75 22 -14 -4 -104 -85 -200
-182 l-175 -175 -242 242 -243 243 180 180 c130 131 180 188 180 204 0 13 -29
76 -64 140 -80 144 -126 256 -171 413 -51 179 -29 168 -336 168 l-249 0 0 340
0 340 249 0 c307 0 285 -11 336 168 45 157 91 269 171 413 35 64 64 127 64
140 0 16 -50 73 -180 204 l-180 180 243 243 242 242 181 -180 c131 -131 186
-180 204 -180 13 0 71 27 129 59 163 92 283 139 508 200 23 6 51 23 62 38 20
24 21 39 21 274 l0 249 340 0 340 0 0 -251z m1489 45 c86 -46 130 -122 130
-224 1 -141 -110 -250 -255 -250 -223 0 -334 265 -180 428 80 86 200 104 305
46z m-1579 -844 c52 -10 113 -24 135 -32 l40 -13 3 -164 3 -163 -146 -267
c-80 -146 -149 -272 -154 -279 -6 -11 -20 -11 -69 -2 -173 31 -367 -71 -443
-234 -59 -125 -59 -247 0 -372 76 -163 270 -265 443 -234 49 9 63 9 69 -2 5
-7 74 -133 154 -279 l146 -267 -3 -163 -3 -164 -52 -17 c-154 -49 -430 -64
-606 -33 -488 86 -893 427 -1056 888 -56 160 -75 272 -75 457 0 185 19 297 75
457 108 305 340 580 619 733 285 157 608 209 920 150z m1135 -169 c190 -86
199 -352 16 -455 -167 -92 -373 28 -374 218 -1 103 56 194 148 237 53 25 156
25 210 0z m-1265 -949 c179 -89 178 -354 -3 -446 -153 -78 -330 6 -366 174
-28 131 53 260 187 296 60 17 113 10 182 -24z m1862 11 c49 -19 121 -99 136
-151 28 -93 9 -181 -55 -252 -53 -59 -108 -83 -189 -83 -206 1 -325 242 -200
406 72 95 193 126 308 80z m-577 -952 c92 -51 147 -169 125 -267 -29 -129
-121 -204 -250 -204 -76 0 -129 21 -179 71 -141 140 -72 381 122 430 51 13
128 0 182 -30z m405 -1012 c93 -42 150 -129 149 -229 0 -103 -44 -177 -131
-226 -69 -37 -170 -41 -233 -7 -146 78 -188 258 -89 387 68 89 200 122 304 75z"/>
<path d="M1933 3465 c-241 -162 -415 -465 -430 -752 -6 -99 -5 -102 20 -127
33 -33 77 -34 112 -3 23 19 27 33 36 122 23 231 142 454 312 583 93 71 107 87
107 122 0 38 -47 90 -82 90 -13 0 -46 -16 -75 -35z"/>
</g>
</svg>
