<?xml version="1.0" standalone="no"?>
<!DOCTYPE svg PUBLIC "-//W3C//DTD SVG 20010904//EN"
 "http://www.w3.org/TR/2001/REC-SVG-20010904/DTD/svg10.dtd">
<svg version="1.0" xmlns="http://www.w3.org/2000/svg"
 width="512.000000pt" height="512.000000pt" viewBox="0 0 512.000000 512.000000"
 preserveAspectRatio="xMidYMid meet">

<g transform="translate(0.000000,512.000000) scale(0.100000,-0.100000)"
fill="#000000" stroke="none">
<path d="M4366 5028 c-110 -21 -239 -100 -320 -196 -57 -68 -105 -178 -118
-272 l-12 -80 -1918 0 -1918 0 0 -1600 0 -1600 1203 -2 1202 -3 7 -65 c52
-477 387 -895 848 -1058 149 -52 237 -66 420 -66 183 0 271 14 420 66 188 67
335 160 481 307 236 235 359 511 375 841 19 366 -122 719 -388 976 l-88 85 0
782 0 782 49 12 c115 27 217 91 300 186 72 84 118 195 128 313 31 366 -305
662 -671 592z m278 -186 c91 -42 149 -100 194 -190 35 -72 37 -81 37 -172 0
-91 -2 -100 -37 -172 -45 -91 -103 -147 -196 -191 -61 -29 -76 -32 -162 -32
-86 0 -101 3 -160 31 -95 46 -153 101 -197 192 -36 72 -38 81 -38 171 0 87 3
102 32 163 40 85 97 147 172 186 78 42 122 52 213 48 61 -3 92 -11 142 -34z
m-682 -570 c10 -27 29 -66 44 -87 l26 -38 -244 -244 c-196 -197 -247 -243
-263 -238 -46 14 -115 17 -150 5 l-37 -12 -81 80 c-79 79 -80 80 -68 112 49
142 -75 310 -229 310 -63 0 -114 -23 -165 -75 -70 -69 -92 -153 -64 -235 l12
-32 -199 -199 c-160 -160 -203 -199 -219 -194 -100 30 -180 11 -250 -59 -101
-102 -101 -230 0 -331 101 -101 229 -101 331 0 70 70 89 150 59 250 -5 16 34
59 194 219 l199 199 32 -12 c42 -14 98 -14 140 0 32 12 33 11 112 -69 80 -79
81 -80 69 -112 -49 -142 75 -310 229 -310 63 0 114 23 166 75 70 70 89 150 59
250 -5 16 42 67 238 263 l244 243 49 -30 c51 -32 154 -71 186 -71 17 0 18 -27
18 -729 l0 -730 -95 45 c-482 225 -1036 136 -1420 -228 l-85 -80 0 176 0 176
-240 0 -240 0 0 -480 0 -480 90 0 91 0 -7 -67 c-3 -38 -7 -74 -10 -80 -3 -10
-236 -13 -1124 -13 l-1120 0 0 1440 0 1440 1853 0 1852 0 17 -48z m-947 -297
c16 -15 25 -36 25 -55 0 -19 -9 -40 -25 -55 -15 -16 -36 -25 -55 -25 -19 0
-40 9 -55 25 -16 15 -25 36 -25 55 0 19 9 40 25 55 15 16 36 25 55 25 19 0 40
-9 55 -25z m480 -480 c16 -15 25 -36 25 -55 0 -19 -9 -40 -25 -55 -15 -16 -36
-25 -55 -25 -19 0 -40 9 -55 25 -16 15 -25 36 -25 55 0 19 9 40 25 55 15 16
36 25 55 25 19 0 40 -9 55 -25z m-1200 -240 c50 -49 15 -135 -55 -135 -41 0
-80 39 -80 80 0 41 39 80 80 80 19 0 40 -9 55 -25z m1381 -1091 c-2 -6 -27
-14 -56 -18 -80 -11 -213 -63 -293 -115 -310 -203 -444 -592 -321 -931 13 -36
20 -68 16 -72 -4 -3 -65 -40 -137 -81 l-130 -75 -23 50 c-33 72 -69 202 -81
292 -47 338 70 685 314 930 174 175 421 299 645 324 l65 7 3 -150 c1 -82 1
-154 -2 -161z m391 271 c592 -170 938 -791 768 -1379 -13 -45 -34 -106 -47
-134 l-23 -50 -132 76 c-72 43 -134 80 -137 83 -3 3 4 30 15 60 99 258 43 567
-141 784 -121 142 -281 235 -460 269 l-65 12 -3 160 -2 160 69 -8 c38 -4 109
-19 158 -33z m-1427 -244 l0 -208 -39 -84 c-22 -46 -43 -96 -46 -111 -6 -24
-12 -28 -41 -28 l-34 0 0 320 0 320 80 0 80 0 0 -209z m1255 -206 c113 -23
227 -87 315 -175 253 -252 253 -649 0 -900 -254 -252 -648 -252 -900 0 -252
252 -252 648 0 900 155 156 370 220 585 175z m-714 -1170 c192 -202 459 -291
721 -241 173 33 316 113 441 245 l68 72 134 -77 c74 -42 135 -79 135 -83 0
-30 -136 -177 -232 -251 -138 -107 -305 -184 -483 -222 -77 -16 -333 -16 -410
0 -178 38 -345 115 -483 222 -110 85 -247 239 -229 257 6 6 259 152 265 153 1
0 34 -34 73 -75z"/>
<path d="M400 4080 l0 -80 80 0 80 0 0 80 0 80 -80 0 -80 0 0 -80z"/>
<path d="M720 4080 l0 -80 560 0 560 0 0 80 0 80 -560 0 -560 0 0 -80z"/>
<path d="M400 3760 l0 -80 80 0 80 0 0 80 0 80 -80 0 -80 0 0 -80z"/>
<path d="M720 3760 l0 -80 560 0 560 0 0 80 0 80 -560 0 -560 0 0 -80z"/>
<path d="M400 3440 l0 -80 80 0 80 0 0 80 0 80 -80 0 -80 0 0 -80z"/>
<path d="M720 3440 l0 -80 560 0 560 0 0 80 0 80 -560 0 -560 0 0 -80z"/>
<path d="M400 3120 l0 -80 80 0 80 0 0 80 0 80 -80 0 -80 0 0 -80z"/>
<path d="M720 3120 l0 -80 560 0 560 0 0 80 0 80 -560 0 -560 0 0 -80z"/>
<path d="M1680 2240 l0 -640 240 0 240 0 0 640 0 640 -240 0 -240 0 0 -640z
m320 0 l0 -480 -80 0 -80 0 0 480 0 480 80 0 80 0 0 -480z"/>
<path d="M400 2000 l0 -400 240 0 240 0 0 400 0 400 -240 0 -240 0 0 -400z
m320 0 l0 -240 -80 0 -80 0 0 240 0 240 80 0 80 0 0 -240z"/>
<path d="M1040 1920 l0 -320 240 0 240 0 0 320 0 320 -240 0 -240 0 0 -320z
m320 0 l0 -160 -80 0 -80 0 0 160 0 160 80 0 80 0 0 -160z"/>
<path d="M3661 1829 c-131 -26 -266 -130 -327 -254 -201 -407 220 -839 631
-646 187 87 299 298 268 501 -42 271 -301 452 -572 399z m234 -180 c63 -30
124 -90 155 -154 19 -41 24 -66 24 -135 1 -79 -2 -89 -35 -150 -127 -231 -454
-222 -569 15 -29 60 -34 187 -11 245 38 93 108 160 201 194 63 23 170 16 235
-15z"/>
</g>
</svg>
