<?xml version="1.0" standalone="no"?>
<!DOCTYPE svg PUBLIC "-//W3C//DTD SVG 20010904//EN"
 "http://www.w3.org/TR/2001/REC-SVG-20010904/DTD/svg10.dtd">
<svg version="1.0" xmlns="http://www.w3.org/2000/svg"
 width="512.000000pt" height="512.000000pt" viewBox="0 0 512.000000 512.000000"
 preserveAspectRatio="xMidYMid meet">

<g transform="translate(0.000000,512.000000) scale(0.100000,-0.100000)"
fill="#000000" stroke="none">
<path d="M2780 5109 c-373 -42 -725 -209 -987 -468 l-71 -71 -837 0 -836 0
-24 -25 c-25 -24 -25 -26 -25 -215 0 -189 0 -191 25 -215 13 -14 36 -25 50
-25 14 0 37 11 50 25 24 23 25 29 25 165 l0 140 726 0 726 0 -18 -27 c-38 -58
-95 -155 -111 -188 l-17 -35 -477 0 c-467 0 -477 0 -503 -21 -33 -26 -36 -79
-6 -109 19 -19 33 -20 471 -20 424 0 450 -1 445 -17 -34 -119 -49 -163 -54
-163 -4 0 -194 -1 -423 -3 -394 -2 -418 -3 -438 -21 -29 -26 -29 -86 0 -112
20 -18 44 -19 428 -22 l406 -3 -4 -82 c-2 -45 -5 -85 -8 -89 -2 -5 -183 -8
-402 -8 -386 0 -398 -1 -419 -20 -32 -30 -30 -82 4 -109 26 -20 37 -21 424
-21 l398 0 7 -62 c16 -161 63 -341 129 -495 14 -34 26 -65 26 -68 0 -3 -31 -5
-69 -5 -59 0 -74 -4 -98 -24 l-28 -24 -2 -1120 c-2 -787 1 -1129 8 -1151 6
-17 19 -36 29 -41 25 -13 655 -13 680 0 10 5 23 24 29 41 8 22 10 278 8 855
-1 453 -1 824 1 824 1 0 21 -12 45 -27 23 -15 68 -41 100 -58 l57 -31 0 -767
c1 -520 4 -776 11 -797 6 -17 19 -35 29 -40 25 -13 655 -13 680 0 38 20 40 51
37 750 l-2 678 50 6 c28 3 67 6 88 6 l37 0 0 -590 0 -591 25 -24 c31 -32 69
-32 100 0 l25 24 0 605 0 604 53 12 c178 42 358 120 516 223 l98 65 394 -394
c263 -264 408 -401 436 -415 147 -71 324 40 323 203 -1 89 -18 110 -437 530
l-396 397 55 83 c116 173 202 380 250 598 19 91 23 134 23 320 0 236 -10 311
-66 494 -50 164 -169 406 -217 444 -22 17 -63 15 -90 -4 -36 -25 -29 -72 23
-163 324 -556 260 -1262 -159 -1753 -166 -194 -406 -358 -646 -440 -376 -128
-764 -111 -1123 49 -451 201 -783 629 -867 1117 -34 200 -24 457 24 644 132
505 536 924 1031 1067 505 146 1034 33 1421 -304 126 -110 142 -116 188 -80
19 15 26 30 26 54 0 28 -11 43 -71 99 -343 325 -837 488 -1309 435z m-1174
-2621 c32 -46 102 -129 156 -184 l99 -102 -1 -823 c0 -453 0 -836 0 -851 l0
-28 -219 0 -220 0 -3 28 c-2 15 -2 480 0 1035 l2 1007 64 0 64 0 58 -82z
m2977 -546 c336 -337 387 -392 387 -418 -1 -54 -51 -90 -100 -72 -14 5 -197
181 -407 391 l-383 382 52 52 c29 29 55 53 58 53 3 0 180 -175 393 -388z
m-2083 -85 c69 -20 174 -41 308 -60 12 -2 14 -239 12 -1274 l0 -23 -220 0
-220 0 0 28 c0 15 0 324 0 687 0 363 0 664 0 669 0 4 8 6 18 3 9 -2 55 -16
102 -30z"/>
<path d="M2770 4805 c-354 -48 -679 -240 -901 -530 -245 -321 -331 -757 -228
-1166 36 -147 114 -312 208 -444 349 -491 974 -692 1551 -499 338 113 620 361
780 688 97 196 140 381 140 601 0 198 -41 394 -118 560 -256 557 -828 873
-1432 790z m445 -164 c227 -50 424 -156 587 -314 442 -429 494 -1121 121
-1609 -249 -327 -671 -511 -1075 -469 -431 43 -788 290 -981 676 -135 272
-156 631 -52 934 119 351 416 637 785 756 175 57 428 68 615 26z"/>
<path d="M21 3884 l-21 -27 0 -1904 0 -1904 25 -24 24 -25 1601 0 1601 0 24
25 c24 23 25 28 25 173 0 135 -2 150 -20 170 -28 30 -80 29 -108 -1 -19 -21
-22 -34 -22 -120 l0 -97 -1500 0 -1500 0 0 1854 0 1853 -21 27 c-15 19 -30 26
-54 26 -24 0 -39 -7 -54 -26z"/>
<path d="M476 3149 c-33 -26 -36 -79 -6 -109 19 -19 33 -20 330 -20 297 0 311
1 330 20 33 33 30 75 -6 108 -25 22 -28 22 -323 22 -287 0 -299 -1 -325 -21z"/>
<path d="M355 2098 l-26 -23 1 -820 c0 -451 0 -830 0 -842 0 -13 9 -32 20 -43
19 -19 33 -20 348 -20 247 0 332 3 345 12 9 7 21 28 27 47 6 21 9 344 7 848
l-2 815 -28 24 -28 24 -319 0 c-316 0 -319 0 -345 -22z m566 -863 l0 -730
-223 0 -223 0 -2 724 c-2 398 0 727 3 732 3 5 101 8 225 7 l220 -3 0 -730z"/>
</g>
</svg>
